<svg xmlns="http://www.w3.org/2000/svg" width="251.333" height="83.633" viewBox="0 0 251.333 83.633">
  <g id="Group_79" data-name="Group 79" transform="translate(-960 -396)">
    <path id="Path_264" data-name="Path 264" d="M62.974-21.09v6.845H74.962v4.81H62.974V0H56.98V-25.9H76.553v4.81Zm16.872,1.184h5.772V0H79.846Zm2.886-2.775a3.661,3.661,0,0,1-2.59-.925,3,3,0,0,1-1-2.294,3,3,0,0,1,1-2.294,3.661,3.661,0,0,1,2.59-.925,3.753,3.753,0,0,1,2.59.888,2.847,2.847,0,0,1,1,2.22,3.142,3.142,0,0,1-1,2.387A3.619,3.619,0,0,1,82.732-22.681ZM102.6-25.9a14.388,14.388,0,0,1,5.976,1.147,8.878,8.878,0,0,1,3.9,3.256,8.97,8.97,0,0,1,1.369,4.995,8.993,8.993,0,0,1-1.369,4.977,8.719,8.719,0,0,1-3.9,3.256A14.593,14.593,0,0,1,102.6-7.141H97.384V0H91.39V-25.9Zm-.333,13.875a6.3,6.3,0,0,0,4.107-1.166,4.059,4.059,0,0,0,1.406-3.312,4.1,4.1,0,0,0-1.406-3.348,6.3,6.3,0,0,0-4.107-1.166H97.384v8.991ZM117.7-19.906h5.772V0H117.7Zm2.886-2.775a3.661,3.661,0,0,1-2.59-.925,3,3,0,0,1-1-2.294,3,3,0,0,1,1-2.294,3.661,3.661,0,0,1,2.59-.925,3.753,3.753,0,0,1,2.59.888,2.847,2.847,0,0,1,1,2.22,3.142,3.142,0,0,1-1,2.387A3.619,3.619,0,0,1,120.583-22.681Zm27.75,12.8q0,.111-.111,1.554H133.163A4.69,4.69,0,0,0,135.087-5.4a6.373,6.373,0,0,0,3.774,1.073,7.642,7.642,0,0,0,2.757-.463,6.677,6.677,0,0,0,2.239-1.461l3.071,3.33Q144.115.3,138.713.3a12.994,12.994,0,0,1-5.957-1.314,9.629,9.629,0,0,1-4-3.645,10.042,10.042,0,0,1-1.406-5.291,10.172,10.172,0,0,1,1.388-5.273,9.72,9.72,0,0,1,3.811-3.663,11.189,11.189,0,0,1,5.42-1.313,11.1,11.1,0,0,1,5.291,1.258,9.182,9.182,0,0,1,3.719,3.608A10.757,10.757,0,0,1,148.333-9.879ZM138.01-15.836a4.971,4.971,0,0,0-3.293,1.11,4.725,4.725,0,0,0-1.628,3.034h9.8a4.773,4.773,0,0,0-1.628-3.016A4.866,4.866,0,0,0,138.01-15.836Z" transform="translate(1063 451)" fill="#fff"/>
    <path id="Path_265" data-name="Path 265" d="M3.071-25.9H14.837a16.536,16.536,0,0,1,7.456,1.61,12.051,12.051,0,0,1,5.032,4.532,12.749,12.749,0,0,1,1.795,6.808,12.749,12.749,0,0,1-1.795,6.808,12.051,12.051,0,0,1-5.032,4.532A16.536,16.536,0,0,1,14.837,0H3.071ZM14.541-4.921a8.7,8.7,0,0,0,6.2-2.164,7.645,7.645,0,0,0,2.313-5.865,7.645,7.645,0,0,0-2.312-5.864,8.7,8.7,0,0,0-6.2-2.164H9.065V-4.921ZM52.725-9.879q0,.111-.111,1.554H37.555A4.69,4.69,0,0,0,39.479-5.4a6.373,6.373,0,0,0,3.774,1.073,7.642,7.642,0,0,0,2.757-.463,6.677,6.677,0,0,0,2.239-1.461l3.071,3.33Q48.507.3,43.1.3a12.994,12.994,0,0,1-5.957-1.314,9.629,9.629,0,0,1-4-3.645,10.042,10.042,0,0,1-1.406-5.291,10.172,10.172,0,0,1,1.387-5.273,9.72,9.72,0,0,1,3.811-3.663A11.189,11.189,0,0,1,42.365-20.2a11.1,11.1,0,0,1,5.291,1.258,9.182,9.182,0,0,1,3.719,3.608A10.757,10.757,0,0,1,52.725-9.879ZM42.4-15.836a4.971,4.971,0,0,0-3.293,1.11,4.725,4.725,0,0,0-1.628,3.034h9.805a4.773,4.773,0,0,0-1.628-3.016A4.866,4.866,0,0,0,42.4-15.836Z" transform="translate(1063 451)" fill="#f22f54"/>
    <g id="Group_4" data-name="Group 4" transform="translate(259.692 -853.44)">
      <g id="Group_3" data-name="Group 3" transform="translate(700.308 1249.44)">
        <path id="Path_4" data-name="Path 4" d="M772.735,1270.349l-36.214-20.908-36.214,20.908v18.769l8.379-4.862v-9.069l27.835-16.07,27.835,16.07v3.6l8.379-4.863Z" transform="translate(-700.308 -1249.44)" fill="#fff"/>
        <path id="Path_5" data-name="Path 5" d="M764.356,1462.109l-27.835,16.07-27.835-16.07v-8l12.219-7.091,10.137,5.884,9.2-5.34-10.138-5.883-9.2-5.341-9.2,5.341-3.015,1.75-8.379,4.863v18.654l36.214,20.908,36.214-20.908v-18.769l-8.379,4.863Z" transform="translate(-700.308 -1404.223)" fill="#fff"/>
      </g>
      <path id="Path_6" data-name="Path 6" d="M930.72,1422.362l-20.325,11.8-9.2,5.34,9.2,5.341,9.2-5.341,11.122-6.455,8.379-4.863V1417.5Z" transform="translate(-166.364 -139.178)" fill="#f22f54"/>
    </g>
  </g>
</svg>
